<svg xmlns="http://www.w3.org/2000/svg" xmlns:xlink="http://www.w3.org/1999/xlink" width="500" zoomAndPan="magnify" viewBox="0 0 375 374.999991" height="500" preserveAspectRatio="xMidYMid meet" version="1.0"><defs><g/><clipPath id="a7aadc5e0d"><path d="M 0.621094 0 L 375 0 L 375 375 L 0.621094 375 Z M 0.621094 0 " clip-rule="nonzero"/></clipPath></defs><rect x="-37.5" width="450" fill="#ffffff" y="-37.499999" height="449.999989" fill-opacity="1"/><rect x="-37.5" width="450" fill="#f5f5f5" y="-37.499999" height="449.999989" fill-opacity="1"/><g clip-path="url(#a7aadc5e0d)"><path fill="#8c52ff" d="M 0.621094 0 L 375 0 L 375 374.378906 L 0.621094 374.378906 Z M 0.621094 0 " fill-opacity="1" fill-rule="nonzero"/></g><g fill="#ffffff" fill-opacity="1"><g transform="translate(74.367914, 299.395901)"><g><path d="M 9.109375 0 L 84.429688 0 L 84.429688 -3.949219 C 69.851562 -3.949219 63.472656 -6.378906 63.472656 -20.347656 L 63.472656 -112.066406 L 89.894531 -112.066406 L 143.042969 -34.925781 C 154.582031 -18.222656 168.554688 0 193.761719 0 L 223.828125 0 L 223.828125 -3.949219 C 212.285156 -3.949219 202.265625 -7.289062 193.152344 -20.347656 L 138.488281 -99.613281 C 133.929688 -95.96875 128.464844 -93.84375 122.695312 -93.84375 C 112.976562 -93.84375 102.347656 -99.613281 94.449219 -112.066406 L 107.207031 -112.066406 C 142.738281 -112.066406 187.078125 -119.65625 187.078125 -167.339844 C 187.078125 -215.929688 140.308594 -221.398438 95.363281 -221.398438 L 9.109375 -221.398438 L 9.109375 -217.449219 C 23.386719 -217.449219 30.066406 -215.324219 30.066406 -201.050781 L 30.066406 -20.347656 C 30.066406 -6.378906 23.386719 -3.949219 9.109375 -3.949219 Z M 63.472656 -116.011719 L 63.472656 -217.449219 L 101.4375 -217.449219 C 135.144531 -217.449219 153.976562 -199.835938 153.976562 -167.035156 C 153.976562 -126.339844 127.859375 -116.011719 95.664062 -116.011719 Z M 63.472656 -116.011719 "/></g></g></g></svg>